<?xml version="1.0" standalone="no"?>
<!DOCTYPE svg PUBLIC "-//W3C//DTD SVG 20010904//EN"
 "http://www.w3.org/TR/2001/REC-SVG-20010904/DTD/svg10.dtd">
<svg version="1.0" xmlns="http://www.w3.org/2000/svg"
 width="225.000000pt" height="225.000000pt" viewBox="0 0 225.000000 225.000000"
 preserveAspectRatio="xMidYMid meet">

<g transform="translate(0.000000,225.000000) scale(0.100000,-0.100000)"
fill="#000000" stroke="none">
<path d="M222 2217 l-22 -23 0 -1068 c0 -677 4 -1074 10 -1086 5 -10 24 -23
41 -29 22 -8 286 -11 876 -11 930 0 900 -2 922 60 16 48 15 1264 -2 1302 -7
15 -207 219 -446 453 l-433 425 -462 0 -463 0 -21 -23z m818 -472 l0 -325
-335 0 -335 0 0 325 0 325 335 0 335 0 0 -325z m282 98 l98 -98 -97 -97 c-54
-54 -101 -98 -105 -98 -5 0 -8 88 -8 195 0 107 3 195 7 195 4 0 52 -44 105
-97z m373 -362 l59 -61 -202 0 c-111 0 -202 3 -202 7 0 4 44 48 98 99 l97 91
45 -38 c25 -20 72 -65 105 -98z m-657 -768 l2 -533 -335 0 -335 0 0 535 0 535
333 -2 332 -3 3 -532z m842 2 l0 -535 -335 0 -335 0 0 528 c0 291 3 532 7 535
3 4 154 7 335 7 l328 0 0 -535z"/>
</g>
</svg>
